<svg xmlns="http://www.w3.org/2000/svg" viewBox="0 0 216.4 232"><path d="M211.8 139.1c-3.2 16.4-28.5 34.3-57.6 37.7-15.2 1.8-30.1 3.5-46 2.7-26-1.2-46.6-6.2-46.6-6.2 0 2.5.2 4.9.5 7.2 3.4 25.7 25.5 27.2 46.4 27.9 21.1.7 39.9-5.2 39.9-5.2l.9 19.1s-14.8 7.9-41.1 9.4c-14.5.8-32.5-.4-53.5-5.9C9.2 213.8 1.4 165.2.2 116-.2 101.4.1 87.6.1 76.1c0-50.3 33-65.1 33-65.1C49.7 3.5 78.2.2 107.9 0h.7c29.7.2 58.2 3.5 74.8 11.1 0 0 33 14.8 33 65.1 0 0 .4 37.1-4.6 62.9" fill="#17bf63"/><path d="M177.5 80.1V141h-24.1V81.9c0-12.5-5.2-18.8-15.7-18.8-11.6 0-17.4 7.5-17.4 22.4v32.4h-24V85.4c0-14.8-5.8-22.4-17.4-22.4-10.6.1-15.9 6.4-15.9 18.9V141H38.9V80.1c0-12.5 3.2-22.4 9.5-29.7 6.6-7.3 15.2-11.1 25.8-11.1 12.4 0 21.7 4.7 27.9 14.2l6 10.1 6-10.1c6.2-9.5 15.5-14.2 27.9-14.2 10.7 0 19.3 3.8 25.9 11.1 6.4 7.3 9.6 17.2 9.6 29.7" fill="#fff"/></svg>
