<svg xmlns="http://www.w3.org/2000/svg" viewBox="0 0 216.4 232"><path d="M211.8 139.1c-3.2 16.4-28.5 34.3-57.6 37.7-15.2 1.8-30.1 3.5-46 2.7-26-1.2-46.6-6.2-46.6-6.2 0 2.5.2 4.9.5 7.2 3.4 25.7 25.5 27.2 46.4 27.9 21.1.7 39.9-5.2 39.9-5.2l.9 19.1s-14.8 7.9-41.1 9.4c-14.5.8-32.5-.4-53.5-5.9C9.2 213.8 1.4 165.2.2 116-.2 101.4.1 87.6.1 76.1c0-50.3 33-65.1 33-65.1C49.7 3.5 78.2.2 107.9 0h.7c29.7.2 58.2 3.5 74.8 11.1 0 0 33 14.8 33 65.1 0 0 .4 37.1-4.6 62.9" fill="#17bf63"/><path d="M65.7 96.5c0 9-7.3 16.3-16.3 16.3s-16.3-7.3-16.3-16.3 7.3-16.3 16.3-16.3c9-.1 16.3 7.2 16.3 16.3m58.8 0c0 9-7.3 16.3-16.3 16.3s-16.3-7.3-16.3-16.3 7.3-16.3 16.3-16.3 16.3 7.2 16.3 16.3m58.9 0c0 9-7.3 16.3-16.3 16.3s-16.3-7.3-16.3-16.3S158 80.1 167 80.1c9.1 0 16.4 7.3 16.4 16.4" fill="#fff"/></svg>
